<svg xmlns="http://www.w3.org/2000/svg" viewBox="0 0 719 395.05"><defs><style>.cls-1{fill:#f7ac37;}.cls-2{fill:#fbdaa6;}.cls-3{fill:#f9c97c;}.cls-4{fill:#facc85;}.cls-5{fill:#f2e3aa;}.cls-6{fill:#4a4347;}.cls-7{fill:#494245;}.cls-8{fill:#4a4346;}.cls-9{fill:#f1e1a9;}</style></defs><title>lightRecurso 2</title><g id="Capa_2" data-name="Capa 2"><g id="Capa_1-2" data-name="Capa 1"><path class="cls-1" d="M664.16,396.91c-23.41-6.64-36.94-26.28-34.82-50.54,1.82-20.8,19.8-39.15,40.47-41.31,24.34-2.53,44.05,10.74,51.54,34.7l1.47,6.42v11.1l-1.38,5C717.11,380.38,705.6,391.6,688,397l-6.41,1.48h-11.1Z" transform="translate(-3.82 -3.43)"/><path class="cls-2" d="M722.82,346.18l-1.47-6.42a5.16,5.16,0,0,0,1.47.09Z" transform="translate(-3.82 -3.43)"/><path class="cls-3" d="M664.16,396.91l6.36,1.57h-6.34Z" transform="translate(-3.82 -3.43)"/><path class="cls-2" d="M688,397a3.22,3.22,0,0,0-.08,1.48h-6.33Z" transform="translate(-3.82 -3.43)"/><path class="cls-4" d="M722.82,362a9.22,9.22,0,0,1-1.38.22l1.38-5Z" transform="translate(-3.82 -3.43)"/><path class="cls-5" d="M351.79,117.34C361.88,97.75,378,83.88,396.1,72.41c27-17.12,57-24.92,88.82-22.25,44.49,3.74,80.85,23.53,107.73,59.56,21.83,29.26,31,62.56,28.34,98.69-.8,11-5.33,21.8-8.15,32.68,2.56-19.1,4.09-37.94-13.49-51.76l5.77-6.16c-6.48-5-11.88-10.77-18.5-14.09-23.21-11.64-47.38-11.3-71.23-2.27-18.6,7-30.11,21.15-33.41,40.81a113.12,113.12,0,0,0-1.19,29c2.2,23.12,17.94,39.83,40.76,44.41a99.14,99.14,0,0,0,18,1.92c27,.36,52.1-4.3,68.62-29-.51,2.48-.48,5.25-1.61,7.42C581.75,309,543.1,337.17,489.41,343c-51.91,5.59-94.23-13.6-128.44-52.14-1.71-1.94-2.84-4.39-4.24-6.6,7.8-1.07,15.87-1.25,23.33-3.49a53.26,53.26,0,0,0,18.46-9.84c2.35-2,2.86-8.27,1.7-11.78-1.68-5.11-6.92-6-12-4.4a44.78,44.78,0,0,0-5.71,2.68c-15.57,7.38-30.45.47-31.91-16.71-1.57-18.43-.36-37.09-.36-56.62,10.23,0,19.41.22,28.57-.07,8.06-.26,12.43-4.32,12.21-10.52-.26-7.12-4.25-10-13.14-9.82-8.57.14-17.14,0-26.17,0,.73-13.41,1.54-26,2-38.62C353.78,122.51,352.46,119.91,351.79,117.34Zm84,42.94c-12.39-.74-12.54,6.86-12.45,15.64.31,31.64.12,63.28.12,94.91v8.49l32.24,2.26c.29-3.25.64-5.55.68-7.87.62-32.66,1.12-65.32,1.84-98,.18-8.16.75-16.12-11.14-15.77v-12.8a26,26,0,0,1,4.21-1.91c6.36-1.67,9-5.84,8.78-12.23-.23-6.68-3.44-11.63-10-12.28a68.47,68.47,0,0,0-20.9,1c-5.76,1.23-8.55,6.93-7.18,12.43,1,4,4.47,7.51,7.42,10.71,1.42,1.54,4.18,1.86,7,3C436.25,151.83,436.06,155.61,435.82,160.28Z" transform="translate(-3.82 -3.43)"/><path class="cls-6" d="M122.11,278.5c-4.17-10.16-8.24-20.1-12.46-30.39H46.36c-3.87,10.6-7.9,21.62-12.17,33.34L3.82,278.19l11.89-30-8.92-1.74c.89-5.33,1.74-10.44,2.66-15.89H23c12.67-30.78,25.25-61.35,38.08-92.5l-7.34-1.86c1.24-5.2,2.39-10,3.12-13,12.28-1.28,23.4-2.42,34.52-3.59s13.4.6,17.26,11.25q24.09,66.45,48.64,132.73c4.58,12.33,1.51,17.65-11.43,17.69-5,0-10.05,0-15-.4C128.26,280.61,125.77,279.51,122.11,278.5Zm-69.2-48h50.68C96.35,205.93,89.34,182.1,82,157,72.05,182,62.64,205.86,52.91,230.52Z" transform="translate(-3.82 -3.43)"/><path class="cls-7" d="M608.19,254c-16.52,24.68-41.57,29.34-68.62,29a99.14,99.14,0,0,1-18-1.92c-22.82-4.58-38.56-21.29-40.76-44.41a113.12,113.12,0,0,1,1.19-29c3.3-19.66,14.81-33.77,33.41-40.81,23.85-9,48-9.37,71.23,2.27,6.62,3.32,12,9.06,18.5,14.09l-5.77,6.16c17.58,13.82,16,32.66,13.49,51.76l.12.18-1.38,5,.08-.12-1.38,3.64-.25.56-1.74,3.73Zm-27.63-33.11c-.76-5.95-.27-12.43-2.51-17.76-5.15-12.25-21.11-19.27-34.53-16.48-19.34,4-30,20.3-28.67,43.66,1.4,24.19,20.85,37,43.72,28.91C573,254.11,580.42,241,580.56,220.91Z" transform="translate(-3.82 -3.43)"/><path class="cls-8" d="M351.79,117.34c.67,2.57,2,5.17,1.9,7.71-.44,12.61-1.25,25.21-2,38.62,9,0,17.6.11,26.17,0,8.89-.16,12.88,2.7,13.14,9.82.22,6.2-4.15,10.26-12.21,10.52-9.16.29-18.34.07-28.57.07,0,19.53-1.21,38.19.36,56.62,1.46,17.18,16.34,24.09,31.91,16.71a44.78,44.78,0,0,1,5.71-2.68c5.08-1.56,10.32-.71,12,4.4,1.16,3.51.65,9.82-1.7,11.78a53.26,53.26,0,0,1-18.46,9.84c-7.46,2.24-15.53,2.42-23.33,3.49a4.63,4.63,0,0,0-1.4-.71c-31.11-3.48-38.45-23.76-39.58-47.23-.81-16.8-.16-33.68-.16-51.16H303c-.36-6.45-.69-12.31-1.06-18.93l15.24-.86c.91-15.49,1.82-30.86,2.82-48Z" transform="translate(-3.82 -3.43)"/><path class="cls-6" d="M283.38,210.41l-22-6.59c-9.75-20.72-32.89-23.73-48-6.68-11.79,13.28-13.93,36.7-4.54,51.86,6.74,10.89,16.41,16.56,29.34,13.78,8.68-1.87,17-5.16,25.6-7.65,5.5-1.61,11.1-2.92,16.65-4.37l2.41,2.79c-1.58,4.06-2,9.52-5,11.9-6.62,5.37-14,10.43-21.92,13.42-13.52,5.11-27.86,5.43-42.13,2.74-27.75-5.22-42.83-21.09-44.52-49.43-2-33.25,11.72-61.23,45.48-69.39,16-3.87,32-2.46,47.83,1.41,16.08,3.94,25,15.52,24.28,32.17C286.72,200.85,284.74,205.24,283.38,210.41Z" transform="translate(-3.82 -3.43)"/><path class="cls-1" d="M235.31,3.43c26.22-.1,46.94,20.36,47,46.42.05,26.54-20.58,47.3-47,47.33a46.81,46.81,0,0,1-46.64-47C188.65,24,209.07,3.53,235.31,3.43Z" transform="translate(-3.82 -3.43)"/><path class="cls-5" d="M611.58,246.24l1.38-5Z" transform="translate(-3.82 -3.43)"/><path class="cls-5" d="M610.28,249.76l1.38-3.64Z" transform="translate(-3.82 -3.43)"/><path class="cls-5" d="M608.29,254.05l1.74-3.73Z" transform="translate(-3.82 -3.43)"/><path class="cls-8" d="M435.82,160.28c.24-4.67.43-8.45.63-12.44-2.8-1.14-5.56-1.46-7-3-3-3.2-6.44-6.74-7.42-10.71-1.37-5.5,1.42-11.2,7.18-12.43a68.47,68.47,0,0,1,20.9-1c6.53.65,9.74,5.6,10,12.28.23,6.39-2.42,10.56-8.78,12.23a26,26,0,0,0-4.21,1.91V160c11.89-.35,11.32,7.61,11.14,15.77-.72,32.66-1.22,65.32-1.84,98,0,2.32-.39,4.62-.68,7.87l-32.24-2.26v-8.49c0-31.63.19-63.27-.12-94.91C423.28,167.14,423.43,159.54,435.82,160.28Z" transform="translate(-3.82 -3.43)"/><path class="cls-9" d="M580.56,220.91c-.14,20.07-7.55,33.2-22,38.33-22.87,8.14-42.32-4.72-43.72-28.91-1.35-23.36,9.33-39.62,28.67-43.66,13.42-2.79,29.38,4.23,34.53,16.48C580.29,208.48,579.8,215,580.56,220.91Z" transform="translate(-3.82 -3.43)"/></g></g></svg>