<svg xmlns="http://www.w3.org/2000/svg" xmlns:xlink="http://www.w3.org/1999/xlink" version="1.1" style="" xml:space="preserve" width="512" height="512"><rect id="backgroundrect" width="100%" height="100%" x="0" y="0" fill="none" stroke="none"/>
<g class="currentLayer" style=""><title>Layer 1</title><g id="svg_1" class="" fill="#474044" fill-opacity="1">
	<g id="svg_2" fill="#474044" fill-opacity="1">
		<path d="M454.11640214920044,40 h-24 V0 h-40 v40 H126.11640214920044 V0 H86.11640214920044 v40 H62.11640214920044 C29.03240214920044,40 2.1164021492004395,66.916 2.1164021492004395,100 v352 c0,33.084 26.916,60 60,60 h392 c33.084,0 60,-26.916 60,-60 V100 C514.1164021492004,66.916 487.20040214920044,40 454.11640214920044,40 zM474.11640214920044,452 c0,11.028 -8.972,20 -20,20 H62.11640214920044 c-11.028,0 -20,-8.972 -20,-20 V188 h432 V452 zM474.11640214920044,148 H42.11640214920044 v-48 c0,-11.028 8.972,-20 20,-20 h24 v40 h40 V80 h264 v40 h40 V80 h24 c11.028,0 20,8.972 20,20 V148 z" id="svg_3" fill="#474044" fill-opacity="1"/>
	</g>
</g><g id="svg_4" class="" fill-opacity="1" fill="#474044">
	<g id="svg_5" fill="#474044">
		<rect x="76" y="230" width="40" height="40" id="svg_6" fill="#474044"/>
	</g>
</g><g id="svg_7" class="" fill-opacity="1" fill="#474044">
	<g id="svg_8" fill="#474044">
		<rect x="156" y="230" width="40" height="40" id="svg_9" fill="#474044"/>
	</g>
</g><g id="svg_10" class="" fill-opacity="1" fill="#474044">
	<g id="svg_11" fill="#474044">
		<rect x="236" y="230" width="40" height="40" id="svg_12" fill="#474044"/>
	</g>
</g><g id="svg_13" class="" fill-opacity="1" fill="#474044">
	<g id="svg_14" fill="#474044">
		<rect x="316" y="230" width="40" height="40" id="svg_15" fill="#474044"/>
	</g>
</g><g id="svg_16" class="" fill-opacity="1" fill="#474044">
	<g id="svg_17" fill="#474044">
		<rect x="396" y="230" width="40" height="40" id="svg_18" fill="#474044"/>
	</g>
</g><g id="svg_19" class="" fill-opacity="1" fill="#474044">
	<g id="svg_20" fill="#474044">
		<rect x="76" y="310" width="40" height="40" id="svg_21" fill="#474044"/>
	</g>
</g><g id="svg_22" class="" fill-opacity="1" fill="#474044">
	<g id="svg_23" fill="#474044">
		<rect x="156" y="310" width="40" height="40" id="svg_24" fill="#474044"/>
	</g>
</g><g id="svg_25" class="" fill-opacity="1" fill="#474044">
	<g id="svg_26" fill="#474044">
		<rect x="236" y="310" width="40" height="40" id="svg_27" fill="#474044"/>
	</g>
</g><g id="svg_28" class="" fill-opacity="1" fill="#474044">
	<g id="svg_29" fill="#474044">
		<rect x="316" y="310" width="40" height="40" id="svg_30" fill="#474044"/>
	</g>
</g><g id="svg_31" class="" fill-opacity="1" fill="#474044">
	<g id="svg_32" fill="#474044">
		<rect x="76" y="390" width="40" height="40" id="svg_33" fill="#474044"/>
	</g>
</g><g id="svg_34" class="" fill-opacity="1" fill="#474044">
	<g id="svg_35" fill="#474044">
		<rect x="156" y="390" width="40" height="40" id="svg_36" fill="#474044"/>
	</g>
</g><g id="svg_37" class="" fill-opacity="1" fill="#474044">
	<g id="svg_38" fill="#474044">
		<rect x="236" y="390" width="40" height="40" id="svg_39" fill="#474044"/>
	</g>
</g><g id="svg_40" class="" fill-opacity="1" fill="#474044">
	<g id="svg_41" fill="#474044">
		<rect x="316" y="390" width="40" height="40" id="svg_42" fill="#474044"/>
	</g>
</g><g id="svg_43" class="" fill-opacity="1" fill="#474044">
	<g id="svg_44" fill="#474044">
		<rect x="396" y="310" width="40" height="40" id="svg_45" fill="#474044"/>
	</g>
</g><g id="svg_46">
</g><g id="svg_47">
</g><g id="svg_48">
</g><g id="svg_49">
</g><g id="svg_50">
</g><g id="svg_51">
</g><g id="svg_52">
</g><g id="svg_53">
</g><g id="svg_54">
</g><g id="svg_55">
</g><g id="svg_56">
</g><g id="svg_57">
</g><g id="svg_58">
</g><g id="svg_59">
</g><g id="svg_60">
</g></g></svg>