<svg id="Capa_1" data-name="Capa 1" xmlns="http://www.w3.org/2000/svg" viewBox="0 0 103 103"><defs><style>.cls-1{fill:#474044;}.cls-2{fill:none;stroke:#474044;stroke-miterlimit:10;stroke-width:6px;}</style></defs><title>Sin título-3</title><path class="cls-1" d="M972.55,289A15.47,15.47,0,0,1,988,304.45v60.1A15.47,15.47,0,0,1,972.55,380h-60.1A15.47,15.47,0,0,1,897,364.55v-60.1A15.47,15.47,0,0,1,912.45,289h60.1m0-6h-60.1A21.45,21.45,0,0,0,891,304.45v60.1A21.45,21.45,0,0,0,912.45,386h60.1A21.45,21.45,0,0,0,994,364.55v-60.1A21.45,21.45,0,0,0,972.55,283Z" transform="translate(-891 -283)"/><line class="cls-2" x1="51.23" y1="31" x2="51.23" y2="72"/><line class="cls-2" x1="72" y1="51.77" x2="31" y2="51.77"/></svg>